<svg xmlns="http://www.w3.org/2000/svg" width="15px" height="15px" class="icon icon-security" viewBox="0 0 15 15" loading="lazy">
  <path fill="currentColor" d="M7.5,0c-1.71,0-3.36.58-4.7,1.65-.35.29-.68.6-.98.95-2.71,3.14-2.36,7.87.78,10.58,2.82,2.43,6.99,2.43,9.8,0,.17-.15.18-.42.03-.59-.15-.17-.4-.18-.58-.04-2.79,2.41-6.99,2.1-9.4-.69-2.16-2.5-2.16-6.21,0-8.71.27-.31.56-.59.87-.84C6.2,0,10.39.46,12.7,3.33c.95,1.18,1.47,2.66,1.47,4.17,0,1.52-.51,2.99-1.47,4.17-.14.18-.12.44.06.59.18.14.44.12.59-.06,2.59-3.23,2.08-7.95-1.15-10.55C10.86.58,9.21,0,7.5,0Z"/>
  <path fill="currentColor" d="M3.94,6.98v3.26c0,.97.79,1.75,1.76,1.76h3.62c.97,0,1.75-.79,1.76-1.76v-3.26c0-.51-.41-.92-.92-.92h-4.71c.01-1.23.93-2.22,2.06-2.22.77.01,1.47.46,1.81,1.16.1.21.35.29.56.19.21-.1.29-.35.19-.56,0,0,0,0,0,0-.48-.98-1.46-1.6-2.55-1.61-1.6,0-2.9,1.38-2.9,3.09h0c-.39.12-.66.48-.66.89ZM10.23,6.98v3.26c0,.51-.41.92-.92.92h-3.62c-.51,0-.92-.41-.92-.92v-3.26s.04-.08.08-.08h5.29s.08.04.08.08Z"/>
  <path fill="currentColor" d="M7.5,9.99c.23,0,.42-.19.42-.42v-1.4c0-.23-.19-.42-.42-.42s-.42.19-.42.42v1.4c0,.23.19.42.42.42Z"/>
</svg>