<svg xmlns="http://www.w3.org/2000/svg" width="15px" height="15px" class="icon icon-return-02" viewBox="0 0 15 15">
  <path fill="currentColor" d="M7.5,0c-1.71,0-3.36.58-4.7,1.65-.35.29-.68.6-.98.95-2.71,3.14-2.36,7.87.78,10.58,2.82,2.43,6.99,2.43,9.8,0,.17-.15.18-.42.03-.59-.15-.17-.4-.18-.58-.04-2.79,2.41-6.99,2.1-9.4-.69-2.16-2.5-2.16-6.21,0-8.71.27-.31.56-.59.87-.84C6.2,0,10.39.46,12.7,3.33c.95,1.18,1.47,2.66,1.47,4.17,0,1.52-.51,2.99-1.47,4.17-.14.18-.12.44.06.59.18.14.44.12.59-.06,2.59-3.23,2.08-7.95-1.15-10.55C10.86.58,9.21,0,7.5,0Z"/>
  <path fill="currentColor" d="M12.18,7.03H3.75l2.28-2.28c.14-.15.14-.38,0-.53-.15-.16-.39-.16-.55-.02l-2.95,2.95h0s-.02.02-.02.03h0s-.02.03-.02.03h0s0,.02-.01.03h0s0,.03-.01.04c0,0,0,0,0,.01v.02s-.01,0-.01.01c0,0,0,.01,0,.02h0s0,.03,0,.04c0,.01,0,.02,0,.03h0v.03s0,0,0,.01c0,0,0,.02,0,.03h0s0,.03,0,.04c0,0,0,0,0,.01,0,0,0,.01,0,.02,0,0,0,0,0,.01,0,0,0,.01,0,.02h0s.01.03.02.04h0s.01.03.01.03h0s.02.03.02.04l3.1,3.1s0,0,0,0c.15.15.4.15.55,0,.15-.15.15-.4,0-.55l-2.43-2.43h8.45c.22,0,.38-.19.38-.4,0-.22-.19-.38-.4-.38Z"/>
</svg>