<svg data-name="Locker" xmlns="http://www.w3.org/2000/svg" width="11px" height="11px" viewBox="0 0 12.41 15" style="margin-top: -2px; margin-right: 4px">
  <path fill="currentColor" d="M10.27,5.19v-2.9c0-1.26-1.03-2.29-2.29-2.29h-3.54c-1.26,0-2.29,1.03-2.29,2.29v2.9c-1.22.13-2.15,1.16-2.15,2.39v5.02c0,1.32,1.08,2.4,2.4,2.4h7.61c1.32,0,2.4-1.08,2.4-2.4v-5.02c0-1.23-.92-2.26-2.14-2.39ZM4.84,2.35h2.73c.19,0,.34.15.34.34v2.48h-3.41v-2.48c0-.19.15-.34.34-.34ZM6.97,10.2v1.47c0,.42-.34.76-.76.76s-.76-.34-.76-.76v-1.47c-.62-.42-.77-1.27-.35-1.88s1.27-.77,1.88-.35.77,1.27.35,1.88c-.09.14-.21.26-.35.35Z"></path>
</svg>