<svg xmlns="http://www.w3.org/2000/svg" width="20px" height="20px" class="icon testimonial-quote-icon" viewBox="0 0 15 12.69" loading="lazy">
  <path fill="#dbdbdb" d="M1.33.03c-.32.07-.56.2-.83.47-.21.21-.3.35-.39.57C0,1.35,0,1.32,0,3.46,0,5.71,0,5.59.18,5.96c.22.44.61.76,1.1.9.16.04.22.05,1.43.06h1.26s.12.07.12.07c.25.12.4.29.48.54.08.27.05.92-.07,1.28-.21.61-.73,1.17-1.32,1.4-.32.13-.43.14-1.03.16-.64.02-.68.03-.84.2-.16.18-.16.16-.16.96v.71l.06.12c.07.15.22.27.36.3.12.03.88.03,1.17,0,.74-.08,1.45-.32,2.08-.73,1.1-.71,1.85-1.88,2.06-3.23.04-.23.04-.48.04-3.75V1.46l-.05-.18c-.15-.57-.58-1.02-1.15-1.22l-.17-.06h-2.04C1.83,0,1.44,0,1.33.03Z"/>
  <path fill="#dbdbdb" d="M9.41.03c-.32.07-.56.2-.83.47-.21.21-.3.35-.39.57-.11.28-.11.26-.11,2.39,0,2.25,0,2.13.18,2.5.22.44.61.76,1.1.9.16.04.22.05,1.43.06h1.26s.12.07.12.07c.25.12.4.29.48.54.08.27.05.92-.07,1.28-.21.61-.73,1.17-1.32,1.4-.32.13-.43.14-1.03.16-.64.02-.68.03-.84.2-.16.18-.16.16-.16.96v.71l.06.12c.07.15.22.27.36.3.12.03.88.03,1.17,0,.74-.08,1.45-.32,2.08-.73,1.1-.71,1.85-1.88,2.06-3.23.04-.23.04-.48.04-3.75V1.46l-.05-.18c-.15-.57-.58-1.02-1.15-1.22l-.17-.06h-2.04c-1.68,0-2.07,0-2.17.02Z"/>
</svg>